Coordinates
version=1
nRows=12
nColumns=46
inDegrees=yes

Units are S.I. units (second, meters, Newtons, ...)
Angles are in degrees.

endheader
time	pelvis_tilt	pelvis_list	pelvis_rotation	pelvis_tx	pelvis_ty	pelvis_tz	bb_angle	bb_tx	bb_ty	bb_tz	hip_flexion_r	hip_adduction_r	hip_rotation_r	knee_angle_r	knee_angle_r_beta	ankle_angle_r	subtalar_angle_r	mtp_angle_r	crank_angle_r	hip_flexion_l	hip_adduction_l	hip_rotation_l	knee_angle_l	knee_angle_l_beta	ankle_angle_l	subtalar_angle_l	mtp_angle_l	crank_angle_l	lumbar_extension	lumbar_bending	lumbar_rotation	arm_flex_r	arm_add_r	arm_rot_r	elbow_flex_r	pro_sup_r	wrist_flex_r	wrist_dev_r	arm_flex_l	arm_add_l	arm_rot_l	elbow_flex_l	pro_sup_l	wrist_flex_l	wrist_dev_l
      0.00000000	     45.93494659	     27.93492562	    -20.07590098	      0.12872411	      0.88780644	     -0.21677129	      0.00000000	      0.50000000	      0.00000000	      0.25000000	     67.98442080	     10.29725598	     39.96557239	    138.13666314	      2.41093959	      6.95066978	    -12.23902272	      0.00000000	      0.00000000	      5.18151619	      0.37246765	    -27.11236812	     96.68922094	      1.68754526	      0.89054969	     13.96584253	      0.00000000	      0.00000000	    -89.94014849	    -25.92195961	    -28.11924688	     89.85345758	      8.43964456	     76.95647388	      3.62129255	     11.29474821	      0.00000000	      0.00000000	     89.85676819	    -15.00533395	     53.51386975	     24.42595184	     19.45516216	      0.00000000	      0.00000000
      0.00500000	     45.91254091	     27.95448086	    -20.05088354	      0.12871329	      0.88778401	     -0.21679809	      0.00000000	      0.50000000	      0.00000000	      0.25000000	     68.01245673	     10.27368259	     39.96563889	    138.14266347	      2.41104432	      6.97482737	    -12.25274414	      0.00000000	      0.00000000	      5.23462304	      0.40319552	    -27.08309511	     96.68920435	      1.68754497	      0.85250292	     13.92781568	      0.00000000	      0.00000000	    -89.93993825	    -25.90374608	    -28.14647003	     89.85366654	      8.39819161	     78.35745424	      3.41265900	     10.77113044	      0.00000000	      0.00000000	     89.85634792	    -14.91516861	     52.76874526	     24.51020944	     19.38172452	      0.00000000	      0.00000000
      0.01000000	     45.91347822	     27.95031175	    -20.06028623	      0.12869991	      0.88777407	     -0.21674895	      0.00000000	      0.50000000	      0.00000000	      0.25000000	     68.00656359	     10.28754040	     39.96562845	    138.14834846	      2.41114354	      6.99913207	    -12.22534385	      0.00000000	      0.00000000	      5.24680637	      0.38685039	    -27.09528131	     96.69347551	      1.68761951	      0.79601097	     13.91165349	      0.00000000	      0.00000000	    -89.93997806	    -25.91291673	    -28.13256685	     89.85360567	      8.39991141	     78.24903956	      3.38798592	     10.90585121	      0.00000000	      0.00000000	     89.85623260	    -14.92106425	     52.81897986	     24.41215804	     19.92785896	      0.00000000	      0.00000000
      0.01500000	    -25.22949678	     42.77910111	     -2.23876467	      0.15917658	      0.93842242	     -0.27740306	      0.00000000	      0.50000000	      0.00000000	      0.25000000	    119.88714853	     15.77095797	     39.97116486	    112.24626778	      1.95906695	      1.97489453	    -17.23617704	      0.00000000	      0.00000000	     64.39660524	      9.49565190	    -39.85106865	     71.00656399	      1.23929833	     -9.59082383	     -4.86193965	      0.00000000	      0.00000000	    -40.62629115	    -45.77385517	    -24.94036375	     87.90629651	      6.36468862	     48.49219446	      4.52544465	     17.33806357	      0.00000000	      0.00000000	     89.57350194	    -10.92784167	     58.50006605	     21.22459604	     29.75980745	      0.00000000	      0.00000000
      0.02000000	    -25.17172952	     42.78121054	     -2.27938541	      0.15913836	      0.93870641	     -0.27722661	      0.00000000	      0.50000000	      0.00000000	      0.25000000	    119.88696756	     15.75545301	     39.97114308	    112.26799893	      1.95944623	      1.97745304	    -17.24066319	      0.00000000	      0.00000000	     64.35331991	      9.51810848	    -39.84933972	     70.97188858	      1.23869313	     -9.60967977	     -4.87648019	      0.00000000	      0.00000000	    -40.64735599	    -45.75531364	    -24.93222694	     87.92227153	      6.36597450	     48.48609365	      4.54244786	     17.33351157	      0.00000000	      0.00000000	     89.56617464	    -10.93551419	     58.48961870	     21.21795529	     29.75448092	      0.00000000	      0.00000000
      0.02500000	    -25.14012813	     42.81330248	     -2.30751110	      0.15912666	      0.93865600	     -0.27707605	      0.00000000	      0.50000000	      0.00000000	      0.25000000	    119.88561702	     15.77127000	     39.97115339	    112.28513163	      1.95974525	      1.98246148	    -17.24798327	      0.00000000	      0.00000000	     64.33999689	      9.50996649	    -39.85023355	     70.98104405	      1.23885293	     -9.64455763	     -4.86294929	      0.00000000	      0.00000000	    -40.67728818	    -45.76886851	    -24.91441133	     87.91869886	      6.36884386	     48.48146393	      4.54917382	     17.32945534	      0.00000000	      0.00000000	     89.56458901	    -10.95196768	     58.47878817	     21.21550558	     29.75055461	      0.00000000	      0.00000000
      0.03000000	    -25.11073056	     42.83725007	     -2.32602316	      0.15910812	      0.93868907	     -0.27715074	      0.00000000	      0.50000000	      0.00000000	      0.25000000	    119.88625646	     15.76722875	     39.97123091	    112.29896294	      1.95998665	      1.98497722	    -17.25049461	      0.00000000	      0.00000000	     64.35229182	      9.54049121	    -39.85003386	     70.98996330	      1.23900860	     -9.67281224	     -4.85083897	      0.00000000	      0.00000000	    -40.70020764	    -45.75176399	    -24.89300778	     87.91364857	      6.37332113	     48.47839030	      4.55406871	     17.32671400	      0.00000000	      0.00000000	     89.53472113	    -10.96305947	     58.46885947	     21.21662571	     29.74777874	      0.00000000	      0.00000000
      0.03500000	    -25.09905816	     42.84492466	     -2.33087483	      0.15909911	      0.93870388	     -0.27712544	      0.00000000	      0.50000000	      0.00000000	      0.25000000	    119.88603328	     15.76700095	     39.97124229	    112.30584570	      1.96010678	      1.98108746	    -17.24920138	      0.00000000	      0.00000000	     64.35415609	      9.54248105	    -39.84990749	     70.99366692	      1.23907324	     -9.70148186	     -4.84129154	      0.00000000	      0.00000000	    -40.71360573	    -45.74735207	    -24.89008103	     87.91487432	      6.37431353	     48.47508340	      4.55830371	     17.32373486	      0.00000000	      0.00000000	     89.53844183	    -10.96769386	     58.46000734	     21.21974742	     29.74540867	      0.00000000	      0.00000000
      0.04000000	    -25.09246932	     42.85079741	     -2.33578710	      0.15909527	      0.93872000	     -0.27710423	      0.00000000	      0.50000000	      0.00000000	      0.25000000	    119.88598876	     15.76867436	     39.97124646	    112.30732524	      1.96013260	      1.97300650	    -17.24622523	      0.00000000	      0.00000000	     64.35802215	      9.54123953	    -39.84980487	     70.99759970	      1.23914188	     -9.73032294	     -4.83295657	      0.00000000	      0.00000000	    -40.72326557	    -45.74739284	    -24.89134225	     87.91675929	      6.37490625	     48.47176122	      4.56248593	     17.32074537	      0.00000000	      0.00000000	     89.53896601	    -10.97087009	     58.45140565	     21.22338309	     29.74313681	      0.00000000	      0.00000000
      0.04500000	    -25.08449706	     42.85626385	     -2.34056218	      0.15910381	      0.93873063	     -0.27707738	      0.00000000	      0.50000000	      0.00000000	      0.25000000	    119.88583357	     15.76786481	     39.97123998	    112.30513116	      1.96009431	      1.96358812	    -17.24203232	      0.00000000	      0.00000000	     64.35711472	      9.54017044	    -39.84994915	     71.00188854	      1.23921673	     -9.75613981	     -4.82685094	      0.00000000	      0.00000000	    -40.73221522	    -45.74823168	    -24.89444076	     87.91750556	      6.37531320	     48.46835391	      4.56635906	     17.31771900	      0.00000000	      0.00000000	     89.53889041	    -10.97337957	     58.44306152	     21.22721044	     29.74093360	      0.00000000	      0.00000000
      0.05000000	    -25.14369532	     42.83361596	     -2.32535127	      0.15899395	      0.93874364	     -0.27700508	      0.00000000	      0.50000000	      0.00000000	      0.25000000	    119.88706413	     15.79446139	     39.97114130	    112.24701573	      1.95908000	      1.92616810	    -17.22323406	      0.00000000	      0.00000000	     64.40005828	      9.47982349	    -39.85150197	     70.99766948	      1.23914309	     -9.80815523	     -4.82844634	      0.00000000	      0.00000000	    -40.70893981	    -45.80155513	    -24.97546999	     87.92445386	      6.35833591	     48.45576793	      4.57518541	     17.30727932	      0.00000000	      0.00000000	     89.57376333	    -10.95731980	     58.43731556	     21.22728846	     29.73573115	      0.00000000	      0.00000000
      0.05500000	    -25.13646298	     42.83854662	     -2.33315413	      0.15900318	      0.93876068	     -0.27699496	      0.00000000	      0.50000000	      0.00000000	      0.25000000	    119.88656903	     15.79895282	     39.97115820	    112.24859797	      1.95910762	      1.90919963	    -17.22500743	      0.00000000	      0.00000000	     64.39388600	      9.48298492	    -39.85127080	     70.99311624	      1.23906362	     -9.82514152	     -4.83447869	      0.00000000	      0.00000000	    -40.70967303	    -45.79566221	    -24.97162342	     87.91990078	      6.36058846	     48.44720597	      4.58598385	     17.30023576	      0.00000000	      0.00000000	     89.57252582	    -10.96271383	     58.42766051	     21.22560908	     29.73063304	      0.00000000	      0.00000000
